HIERARCHY
ROOT hip
{
  OFFSET 0 0 0
  CHANNELS 6 Xposition Yposition Zposition Zrotation Yrotation Xrotation
  JOINT abdomen
  {
    OFFSET 0 20.6881 -0.73152
    CHANNELS 3 Zrotation Xrotation Yrotation
    JOINT chest
    {
      OFFSET 0 11.7043 -0.48768
      CHANNELS 3 Zrotation Xrotation Yrotation
      JOINT neck
      {
        OFFSET 0 22.1894 -2.19456
        CHANNELS 3 Zrotation Xrotation Yrotation
        JOINT head
        {
          OFFSET -0.24384 7.07133 1.2192
          CHANNELS 3 Zrotation Xrotation Yrotation
          JOINT leftEye
          {
            OFFSET 4.14528 8.04674 8.04672
            CHANNELS 3 Zrotation Xrotation Yrotation
            End Site
            {
              OFFSET 1 0 0
            }
          }
          JOINT rightEye
          {
            OFFSET -3.6576 8.04674 8.04672
            CHANNELS 3 Zrotation Xrotation Yrotation
            End Site
            {
              OFFSET 1 0 0
            }
          }
        }
      }
      JOINT rCollar
      {
        OFFSET -2.68224 19.2634 -4.8768
        CHANNELS 3 Zrotation Xrotation Yrotation
        JOINT rShldr
        {
          OFFSET -8.77824 -1.95073 1.46304
          CHANNELS 3 Zrotation Xrotation Yrotation
          JOINT rForeArm
          {
            OFFSET -28.1742 -1.7115 0.48768
            CHANNELS 3 Zrotation Xrotation Yrotation
            JOINT rHand
            {
              OFFSET -22.5879 0.773209 7.07136
              CHANNELS 3 Zrotation Xrotation Yrotation
              JOINT rThumb1
              {
                OFFSET -1.2192 -0.487915 3.41376
                CHANNELS 3 Zrotation Xrotation Yrotation
                JOINT rThumb2
                {
                  OFFSET -3.37035 -0.52449 3.41376
                  CHANNELS 3 Zrotation Xrotation Yrotation
                  End Site
                  {
                    OFFSET -1.78271 -1.18214 1.43049
                  }
                }
              }
              JOINT rIndex1
              {
                OFFSET -7.75947 0.938293 5.60832
                CHANNELS 3 Zrotation Xrotation Yrotation
                JOINT rIndex2
                {
                  OFFSET -2.54057 -0.884171 1.56538
                  CHANNELS 3 Zrotation Xrotation Yrotation
                  End Site
                  {
                    OFFSET -1.62519 -0.234802 1.16502
                  }
                }
              }
              JOINT rMid1
              {
                OFFSET -8.24714 1.18213 3.41376
                CHANNELS 3 Zrotation Xrotation Yrotation
                JOINT rMid2
                {
                  OFFSET -3.10165 -0.590103 1.0647
                  CHANNELS 3 Zrotation Xrotation Yrotation
                  End Site
                  {
                    OFFSET -2.48547 -0.328903 0.83742
                  }
                }
              }
              JOINT rRing1
              {
                OFFSET -8.82822 0.546677 1.51678
                CHANNELS 3 Zrotation Xrotation Yrotation
                JOINT rRing2
                {
                  OFFSET -2.60934 -0.819778 -0.0198488
                  CHANNELS 3 Zrotation Xrotation Yrotation
                  End Site
                  {
                    OFFSET -2.33842 -0.294052 0.168128
                  }
                }
              }
              JOINT rPinky1
              {
                OFFSET -8.27202 -0.0477905 -0.4584
                CHANNELS 3 Zrotation Xrotation Yrotation
                JOINT rPinky2
                {
                  OFFSET -1.82734 -0.647385 -0.700984
                  CHANNELS 3 Zrotation Xrotation Yrotation
                  End Site
                  {
                    OFFSET -1.69225 -0.51767 -0.607171
                  }
                }
              }
            }
          }
        }
      }
      JOINT lCollar
      {
        OFFSET 2.68224 19.2634 -4.8768
        CHANNELS 3 Zrotation Xrotation Yrotation
        JOINT lShldr
        {
          OFFSET 8.77824 -1.95073 1.46304
          CHANNELS 3 Zrotation Xrotation Yrotation
          JOINT lForeArm
          {
            OFFSET 28.1742 -1.7115 0.48768
            CHANNELS 3 Zrotation Xrotation Yrotation
            JOINT lHand
            {
              OFFSET 22.5879 0.773209 7.07136
              CHANNELS 3 Zrotation Xrotation Yrotation
              JOINT lThumb1
              {
                OFFSET 1.2192 -0.487915 3.41376
                CHANNELS 3 Zrotation Xrotation Yrotation
                JOINT lThumb2
                {
                  OFFSET 3.37035 -0.52449 3.41376
                  CHANNELS 3 Zrotation Xrotation Yrotation
                  End Site
                  {
                    OFFSET 1.78271 -1.18214 1.43049
                  }
                }
              }
              JOINT lIndex1
              {
                OFFSET 7.75947 0.938293 5.60832
                CHANNELS 3 Zrotation Xrotation Yrotation
                JOINT lIndex2
                {
                  OFFSET 2.54057 -0.884171 1.56538
                  CHANNELS 3 Zrotation Xrotation Yrotation
                  End Site
                  {
                    OFFSET 1.62519 -0.234802 1.16502
                  }
                }
              }
              JOINT lMid1
              {
                OFFSET 8.24714 1.18213 3.41376
                CHANNELS 3 Zrotation Xrotation Yrotation
                JOINT lMid2
                {
                  OFFSET 3.10165 -0.590103 1.0647
                  CHANNELS 3 Zrotation Xrotation Yrotation
                  End Site
                  {
                    OFFSET 2.48547 -0.328903 0.83742
                  }
                }
              }
              JOINT lRing1
              {
                OFFSET 8.82822 0.546677 1.51678
                CHANNELS 3 Zrotation Xrotation Yrotation
                JOINT lRing2
                {
                  OFFSET 2.60934 -0.819778 -0.0198488
                  CHANNELS 3 Zrotation Xrotation Yrotation
                  End Site
                  {
                    OFFSET 2.33842 -0.294052 0.168128
                  }
                }
              }
              JOINT lPinky1
              {
                OFFSET 8.27202 -0.0477905 -0.4584
                CHANNELS 3 Zrotation Xrotation Yrotation
                JOINT lPinky2
                {
                  OFFSET 1.82734 -0.647385 -0.700984
                  CHANNELS 3 Zrotation Xrotation Yrotation
                  End Site
                  {
                    OFFSET 1.69225 -0.51767 -0.607171
                  }
                }
              }
            }
          }
        }
      }
    }
  }
  JOINT rButtock
  {
    OFFSET -8.77824 4.35084 1.2192
    CHANNELS 3 Zrotation Xrotation Yrotation
    JOINT rThigh
    {
      OFFSET 0 -1.70687 -2.19456
      CHANNELS 3 Zrotation Xrotation Yrotation
      JOINT rShin
      {
        OFFSET 0 -36.8199 0.73152
        CHANNELS 3 Zrotation Xrotation Yrotation
        JOINT rFoot
        {
          OFFSET 0.73152 -45.1104 -5.12064
          CHANNELS 3 Zrotation Xrotation Yrotation
          End Site
          {
            OFFSET -1.1221 -3.69964 12.103
          }
        }
      }
    }
  }
  JOINT lButtock
  {
    OFFSET 8.77824 4.35084 1.2192
    CHANNELS 3 Zrotation Xrotation Yrotation
    JOINT lThigh
    {
      OFFSET 0 -1.70687 -2.19456
      CHANNELS 3 Zrotation Xrotation Yrotation
      JOINT lShin
      {
        OFFSET 0 -36.8199 0.73152
        CHANNELS 3 Zrotation Xrotation Yrotation
        JOINT lFoot
        {
          OFFSET -0.73152 -45.1104 -5.12064
          CHANNELS 3 Zrotation Xrotation Yrotation
          End Site
          {
            OFFSET 1.1221 -3.69964 12.103
          }
        }
      }
    }
  }
}
MOTION
Frames:	4
Frame Time:	0.03333
2.3022769019007683 76.06860399246216 7.388849509879947 -2.576408186301105 2.776569654692679 2.0683148962554996 -3.2546555758368916 5.616499986107804 2.783388531361879 3.0413965793815834 -6.471178632424425 0.9209900714822182 -5.795455638117193 9.859968024502965 -4.673699946666972 7.5124806718674195 -11.852243705389183 -7.9966241170317875 0.012836460090966268 -0.12449775334408343 0.03229445507692933 0.06530898818319254 0.16253811840049923 0.009602792405788357 0.09197641459076936 -0.2615210864501918 0.04352296257225965 43.24374788076454 38.735170745490386 53.71872065228744 -18.89194295177655 -12.126548371325127 36.26856745505075 -0.27339384953795154 -20.201560008140213 -1.7072911604093122 0.057511793637094084 -0.09882120462415434 -0.14367500354277518 0.021606503026541976 0.09951092032819339 0.09736594744411849 0.044513410038030915 0.14276279976260825 -0.12690752946062855 7.619274094635154 5.725144817027435 0.5573241730051469 0.07906210768554213 -0.1253686825045394 -0.0891336751839755 3.058676744538304 1.169178868796383 0.10348785133328621 0.0588032329987554 0.027318622245935373 -0.03424816932403066 10.474046427116717 0.772325027781367 0.018575553221495927 -0.04776948928142293 -0.1203903016928199 0.2312198326515029 2.1657191567919933 -0.8752565655428409 -0.03821045277500497 -0.028143420949067306 0.10680799028057354 -0.07650953792666143 -51.783417286815585 45.839790086165074 -59.733829197696714 17.002630665080986 -10.076632724033171 -31.957434013208744 1.3156810904078675 -28.459169922226415 5.0570157124167885 -0.1635352192976153 -0.04873953622612341 0.02968880460963558 -0.046591708536418856 0.04377412210165637 0.052029286167689474 0.029604494462068236 0.12500382767289905 0.004494157752162609 -7.6688527302729845 5.420094481429503 -0.579176296037545 -0.0036091413265434955 0.09917215895361663 -0.10334591146459687 -3.011610978184804 1.092975408721903 -0.17541997523706226 0.08558360432158203 0.02953032287655013 0.09004793335697873 -10.41978655057649 0.7406209972014602 -0.04928579127716576 0.030057428051511317 -0.0032946858204584554 0.12399930961723117 -2.253119964958769 -0.8901209248066398 0.20638307703436803 -0.09756653089013471 0.022291549655953098 0.31347107839048566 3.995167183289926 -35.59503908590121 -2.6821918082887355 -1.5082852746479398 63.45430154049436 2.405244499474232 -1.329958747094133 -25.987783791820487 -2.4720680821058747 0.1306272077939352 0.12243774427802379 0.05907633384385013 -7.191191134630959 -35.127311146633325 -1.2518972621219977 1.0930392283019603 64.3004800163889 -2.5185889274296547 6.819885402762964 -25.451482460832963 12.05726207861087
2.394990064203739 76.02808475494385 7.504826178774238 -2.5486302338334865 2.831941571407149 2.1586232305745847 -3.332286225282787 5.6509228588642 2.7897589634233855 3.0590521914992435 -6.484109034296906 0.9416788211998927 -5.8049918628590005 9.911449721598292 -4.731672884794747 7.554190075807749 -11.963440038850637 -8.11363123392963 0.01464782092276836 -0.1242563488456058 0.032369160270976347 0.06410890260168015 0.16253571716211915 0.011001807246877375 0.09353327083470914 -0.2662180154433391 0.044047499756175466 42.84452673887188 38.651658022508634 54.09108890545819 -18.89802523523245 -12.146618882201208 36.300071702597435 -0.28510591641723093 -20.068569394810893 -1.7023021341074411 0.06192398911921654 -0.10221020575209715 -0.15027499399341734 0.02933811708443774 0.09794920824664055 0.10076839550698977 0.04689330407695723 0.13967971640428795 -0.13066658810336854 7.610509254382735 5.721782229521674 0.5588889266553145 0.08632697436320272 -0.1239439744127835 -0.09300062947126053 3.0538960390061183 1.171044791100266 0.10682599956842416 0.059500072376655375 0.028079814812421562 -0.030062330579870653 10.459844756284967 0.766907193665666 0.021113315343699455 -0.05008022765500287 -0.12439610091932661 0.22998090036908606 2.164928775838976 -0.8756621613856633 -0.038541423465059683 -0.02297275430395609 0.11084377830640482 -0.07542385801374674 -51.71393377238905 45.80272947972859 -59.72182172513583 17.054698904671284 -10.135451751844382 -32.02161730083935 1.365633038572521 -28.74008023486341 5.11551799020524 -0.15859555178466803 -0.04129004099746091 0.031904240499952684 -0.04375227083239762 0.04476329891211818 0.049405426309346766 0.031129654359390926 0.12484630643516564 0.007497466635411262 -7.663101710991834 5.414751139064437 -0.5780491547419342 -0.0031241178541932544 0.09786108279809153 -0.10347493800688665 -3.0108716102071504 1.0882190357386352 -0.17493673935328385 0.0912205380992524 0.02953629929207389 0.08959425938570179 -10.40755282799935 0.7369092162743814 -0.04651977810672216 0.03491049090021694 0.0037226932214949574 0.11936353216149659 -2.251268770250284 -0.8847248619189182 0.21307143305739723 -0.09490275711382974 0.01697195287042387 0.31299872812069696 3.94356510411048 -35.795341213501004 -2.8402201875680277 -1.5463420214861932 63.63498736479788 2.4276182782044895 -1.4299922035742587 -25.890344313121084 -2.690713963382207 0.13356504291068694 0.12196267260473767 0.06460846690644312 -7.391787814138709 -35.171321470550296 -1.4500948376837814 1.0510288691513274 64.36773688914602 -2.4989235321487184 6.8926038655351505 -25.549842307523022 12.206660513873851
2.47898418456316 76.00589990615845 7.6038220431655645 -2.592145155592226 2.7932385179186836 2.2067116043128827 -3.2074926927311305 5.654098469941432 2.776637529697556 3.0582611702159914 -6.491500152752506 0.9527007188078834 -5.819489793145999 9.897657862116743 -4.631256297390866 7.549929745312953 -11.943711891206702 -8.024913906800334 0.014688401851391758 -0.11594838421563732 0.030955257751930816 0.05999221952286653 0.16626574750088657 -0.0015668614038567923 0.08647883268042311 -0.26790432511639184 0.04382455811279802 43.173776007812336 38.91590779621268 53.58330190670818 -18.95912127735821 -12.266422107790525 36.51688922761032 -0.2937388486413039 -20.412401117629333 -1.7503247672749775 0.05898348595982027 -0.10176384221766623 -0.14951428167460717 0.030376252477426785 0.10233077459920373 0.0938336190653112 0.043691012573279064 0.130157045319115 -0.13429779414258236 7.606493956924414 5.716057250336734 0.5700514301106724 0.08550361640309884 -0.11250943732938878 -0.07778680998188026 3.0452229794206715 1.1673142271529697 0.10675588340772574 0.07085942401832705 0.01790197917545631 -0.028033977839788428 10.444328274037991 0.7594000687158814 0.02653336393479547 -0.05013609646797946 -0.11471388088401041 0.22331639664729902 2.1689982879238343 -0.8675725493657237 -0.04083380570524522 -0.026258288738143787 0.11779157479618872 -0.06125665829296514 -51.73117316985416 45.55107798994864 -59.80124316480474 16.990530984966306 -10.040562495026334 -31.878500932065492 1.2301737387450664 -28.380783256216766 5.003986550587633 -0.1514033625886446 -0.02935449886627519 0.026281607430857033 -0.041717514789968504 0.04422550155625901 0.04971652008169969 0.024530517682395014 0.13246367490702238 0.010039951193095618 -7.6665492489753975 5.4263253214998475 -0.5675649210876703 0.004245015930015816 0.10381674095007819 -0.09760225598114507 -3.022580688878668 1.0850957182972354 -0.16937141584019286 0.08959153798220436 0.033195679861614 0.09330593359107481 -10.418163526874965 0.7276746937948184 -0.04445343243938174 0.03653810363508982 0.007602881000296889 0.11730166880579898 -2.251220532039271 -0.894297372040691 0.21516862129770847 -0.09327044862390248 0.023323068303183696 0.3128090836495233 4.038371544884842 -35.62246229541881 -2.802217868799723 -1.4625425372810124 63.627672232196794 2.3476474351942183 -1.506763636566908 -26.01964320920401 -2.8941255346016495 0.12297814297546138 0.11845451669228987 0.07583345592053595 -7.201477399520998 -35.325205632550684 -1.261719074148476 1.0017089269283117 64.4488044044049 -2.4036635241247852 6.860858000046577 -25.525981041657584 12.039066454661956
2.552120201289654 75.97887516021729 7.6831812504678965 -2.59624412286788 2.8570986522241872 2.1539492467481804 -3.0876194577028215 5.623970505512506 2.787436272218758 3.0305519465268955 -6.486039843397903 0.9480938629344156 -5.831316692580699 9.859801538641946 -4.510791824112529 7.532079899690771 -11.862547045752146 -7.911437143929742 0.012276838146274794 -0.11136831549032064 0.030248813420510515 0.058102605000300185 0.16350421664208578 -0.006701722916678332 0.07804656394364569 -0.2632020600379554 0.043978237369123305 43.63913045634365 39.207785685109414 52.94428989852929 -19.022360291336067 -12.34813336837868 36.661620936122894 -0.29574948557822645 -20.751893962777526 -1.7990581670030186 0.05431814659158422 -0.10092933183930819 -0.14433144875503687 0.026019072034634667 0.10439829420530775 0.08298994670597548 0.0391914120141216 0.12283582958080182 -0.1356345902292008 7.614475032969574 5.715982118255863 0.5758672828280853 0.08220431486886534 -0.10230785611288716 -0.061885195779164986 3.0418490794140967 1.1634501543517408 0.10415390149906822 0.07941018052894833 0.010037549954715536 -0.03411871589491776 10.443635009837235 0.7575082130374937 0.0288211571416324 -0.049856965846508075 -0.11074169899482486 0.21201032581723872 2.1759159888925876 -0.8587595776239973 -0.04444372076415563 -0.031064233953746898 0.11740839051158043 -0.04798704147865841 -51.86897565145375 45.40780794191845 -59.72268232897125 16.942606962654914 -9.992961199153223 -31.85518949642824 1.0609263468672048 -28.005790502857433 4.895706707901774 -0.1445457993010989 -0.020250070146059757 0.02323875815561635 -0.04024101999048216 0.04414391281218909 0.048110251687983094 0.020465914796002738 0.13793369593685054 0.016169298921241592 -7.677398150698316 5.437539211456539 -0.5615065432938691 0.01691258892158294 0.10919780943813753 -0.09465012015581861 -3.036005425692328 1.085641813265719 -0.1667627104640711 0.08746201306504132 0.035476536157575136 0.0948777842346769 -10.437831910363663 0.724061363641323 -0.04557198263767711 0.03730255121360234 0.0051963598957780995 0.11724425252808857 -2.2560578000755207 -0.903273627992263 0.21286748787764886 -0.09450996787570112 0.02826801854056715 0.3105617379691776 4.0313885302321495 -35.40755039318436 -2.755916870189853 -1.4379930231349882 63.595795739340346 2.304137849520768 -1.5170681508686357 -26.160905181618215 -2.905896298419109 0.11353401906574359 0.11537917065763874 0.08032889433316794 -6.912376409408691 -35.34919667201036 -0.9789031387330506 1.0025239605953646 64.46917202850987 -2.3600681341998864 6.786282579593793 -25.467507792173105 11.856998370825158
